# xmcd
#
# Track frame offsets:
#	150
#	22233
#	44229
#	67148
#	85078
#	111664
#	132654
#	165838
#	183957
#	208135
#	237848
#	253336
#	270270
#	299121
#	320920
#
# Disc length: 4602 seconds
#
# Revision: 0
# Processed by: cddbd v1.5.1PL0 Copyright (c) Steve Scherf et al.
# Submitted via: dBpowerAMP V4.0
#
DISCID=f811f80f
DTITLE=HippyMuzikGroup - HighTimeMuziQ
DYEAR=1900
DGENRE=Blues
TTITLE0=I Play The Blues For You -
TTITLE1=Ta' Ta' You -
TTITLE2=Who's Been Talking -
TTITLE3=Who`s Been Talking -
TTITLE4=Walkin Out The Door -
TTITLE5=As The Years go Passing by -
TTITLE6=Blue Deluxe -
TTITLE7=A Fool no More -
TTITLE8=Sensitive Kind -
TTITLE9=I'll Pay The Blues For You -
TTITLE10=Big Leg Woman -
TTITLE11=Woulda Coulda Shoulda -
TTITLE12=St_ James Infirmary -
TTITLE13=Guitarmanz -
TTITLE14=Bohemian Rhapsody -
EXTD=
EXTT0=
EXTT1=
EXTT2=
EXTT3=
EXTT4=
EXTT5=
EXTT6=
EXTT7=
EXTT8=
EXTT9=
EXTT10=
EXTT11=
EXTT12=
EXTT13=
EXTT14=
PLAYORDER=
